<?xml version="1.0" encoding="UTF-8"?>
<!-- Generator: Adobe Illustrator 15.0.0, SVG Export Plug-In . SVG Version: 6.00 Build 0)  -->
<svg xmlns="http://www.w3.org/2000/svg" xmlns:xlink="http://www.w3.org/1999/xlink" version="1.1" id="Layer_1" x="0px" y="0px" width="40px" height="40px" viewBox="0 0 40 40" enable-background="new 0 0 40 40" xml:space="preserve">
<path fill="#122141" stroke="#FFFFFF" d="M5.598,40.412c8.01-8.496,12.058-19.26,7.695-22.444"/>
<path fill="#122141" stroke="#FFFFFF" d="M9.333,31.667c14.25-7.083,22.636-18.123,18.265-32.22"/>
<path fill="#122141" stroke="#FFFFFF" d="M13.537,26.969C24.237,18.482,28.26,7.037,22.522,1.378"/>
<path fill="#122141" stroke="#FFFFFF" d="M9.547,31.995c11.057-8.836,14.957-20.893,8.714-26.962"/>
<path fill="#122141" stroke="#FFFFFF" d="M7.664,36.835c8.113-8.934,11.49-20.558,6.205-24.272"/>
<line fill="#122141" stroke="#FFFFFF" x1="6.25" y1="35.75" x2="11.167" y2="38.834"/>
<line fill="#FFFFFF" stroke="#122141" x1="6" y1="39.5" x2="31" y2="39.5"/>
<rect x="41" y="20" fill="#6386A5" width="8" height="8"/>
<rect x="40" y="30" fill="#122141" width="9" height="8"/>
<rect x="41" y="9" fill="#9B7944" width="9" height="9"/>
<rect x="41" fill="#C1A556" width="9" height="9"/>
<rect x="52" y="20" fill="#293E5D" width="9" height="8"/>
<rect x="52" y="10" fill="#A18C6A" width="9" height="8"/>
<rect x="52" y="30" fill="#121331" width="9" height="8"/>
<rect x="52" fill="#7C786B" width="9" height="8"/>
</svg>