<?xml version="1.0" encoding="UTF-8"?>
<!-- Generator: Adobe Illustrator 15.0.0, SVG Export Plug-In . SVG Version: 6.00 Build 0)  -->
<svg xmlns="http://www.w3.org/2000/svg" xmlns:xlink="http://www.w3.org/1999/xlink" version="1.1" id="Layer_1" x="0px" y="0px" width="40px" height="40px" viewBox="0 0 40 40" enable-background="new 0 0 40 40" xml:space="preserve">
<line fill="#FFFFFF" stroke="#122141" x1="1" y1="39.5" x2="34" y2="39.5"/>
<path fill="#122141" stroke="#FFFFFF" d="M2.088,34.733c23.111-7.149,37.592-17.58,32.584-35.041"/>
<path fill="#122141" stroke="#FFFFFF" d="M-0.034,41.515C8.438,24.167,9.854-0.896,33.363-0.602"/>
<line fill="#122141" stroke="#FFFFFF" x1="2.165" y1="34.148" x2="8.61" y2="37.352"/>
<path fill="#FFFFFF" d="M12.587,28.037c14.915-4.583,28.38-9.649,27.409-10.471"/>
<path fill="#FFFFFF" d="M12.591,21.229C10.358,8.846,9.383-2.787,10.778-2.533"/>
<path fill="#FFFFFF" d="M20.229,12.646c2.34-12.37,5.608-23.746,6.854-23.195"/>
<path fill="#FFFFFF" d="M21.908,18.693c14.916-4.583,28.38-9.651,27.407-10.473"/>
<path fill="#FFFFFF" d="M10.699,27.301C21.578,11.956,33.075-1.738,34.386-0.546"/>
</svg>