<?xml version="1.0" encoding="utf-8"?>
<!-- Generator: Adobe Illustrator 15.0.0, SVG Export Plug-In . SVG Version: 6.00 Build 0)  -->
<!DOCTYPE svg PUBLIC "-//W3C//DTD SVG 1.1//EN" "http://www.w3.org/Graphics/SVG/1.1/DTD/svg11.dtd">
<svg version="1.1" id="Layer_1" xmlns="http://www.w3.org/2000/svg" xmlns:xlink="http://www.w3.org/1999/xlink" x="0px" y="0px"
	 width="40px" height="40px" viewBox="0 0 40 40" enable-background="new 0 0 40 40" xml:space="preserve">
<line fill="#122141" stroke="#FFFFFF" x1="-25.75" y1="34.75" x2="-20.833" y2="37.834"/>
<line fill="#FFFFFF" stroke="#122141" x1="0" y1="39.5" x2="38" y2="39.5"/>
<path fill="#122141" stroke="#FFFFFF" d="M2.142,34.733c24.631-7.149,40.065-17.58,34.729-35.041"/>
<path fill="#122141" stroke="#FFFFFF" d="M-0.119,41.515C8.91,24.167,10.42-0.896,35.478-0.602"/>
<line fill="#122141" stroke="#FFFFFF" stroke-width="2" x1="2.224" y1="33.148" x2="9.094" y2="36.352"/>
<path fill="#FFFFFF" d="M13.332,28.037c15.918-4.12,22.873-5.854,24.335-8.704"/>
<path fill="#FFFFFF" d="M13.071,21.271C10.927,9.08,12.209-2.972,13.66-2.563"/>
<path fill="#FFFFFF" d="M21.478,12.646C23,0,27.457-11.1,28.784-10.549"/>
<path fill="#FFFFFF" d="M23.267,18.693C39.165,14.109,49.515,9.042,48.479,8.22"/>
<path fill="#FFFFFF" d="M9.559,29.476C21,13.667,34.25-1.583,36.31-1.216"/>
<rect x="-3" y="31" fill="#FFFFFF" width="4" height="13"/>
</svg>
