<svg xmlns="http://www.w3.org/2000/svg" width="141" height="36" viewBox="0 0 141 36" fill="none">
<path d="M0 4C0 1.79086 1.79086 0 4 0H137C139.209 0 141 1.79086 141 4V32C141 34.2091 139.209 36 137 36H4C1.79086 36 0 34.2091 0 32V4Z" fill="#F5F7FA"/>
<path d="M16.9109 18.1C16.9109 17.1387 17.1256 16.28 17.5549 15.524C17.9936 14.7587 18.5862 14.166 19.3329 13.746C20.0889 13.3167 20.9336 13.102 21.8669 13.102C22.9589 13.102 23.9156 13.382 24.7369 13.942C25.5582 14.502 26.1322 15.2767 26.4589 16.266H24.2049C23.9809 15.7993 23.6636 15.4493 23.2529 15.216C22.8516 14.9827 22.3849 14.866 21.8529 14.866C21.2836 14.866 20.7749 15.0013 20.3269 15.272C19.8882 15.5333 19.5429 15.9067 19.2909 16.392C19.0482 16.8773 18.9269 17.4467 18.9269 18.1C18.9269 18.744 19.0482 19.3133 19.2909 19.808C19.5429 20.2933 19.8882 20.6713 20.3269 20.942C20.7749 21.2033 21.2836 21.334 21.8529 21.334C22.3849 21.334 22.8516 21.2173 23.2529 20.984C23.6636 20.7413 23.9809 20.3867 24.2049 19.92H26.4589C26.1322 20.9187 25.5582 21.698 24.7369 22.258C23.9249 22.8087 22.9682 23.084 21.8669 23.084C20.9336 23.084 20.0889 22.874 19.3329 22.454C18.5862 22.0247 17.9936 21.432 17.5549 20.676C17.1256 19.92 16.9109 19.0613 16.9109 18.1ZM31.577 23.126C30.8303 23.126 30.1583 22.9627 29.561 22.636C28.9637 22.3 28.4923 21.8287 28.147 21.222C27.811 20.6153 27.643 19.9153 27.643 19.122C27.643 18.3287 27.8157 17.6287 28.161 17.022C28.5157 16.4153 28.9963 15.9487 29.603 15.622C30.2097 15.286 30.8863 15.118 31.633 15.118C32.3797 15.118 33.0563 15.286 33.663 15.622C34.2697 15.9487 34.7457 16.4153 35.091 17.022C35.4457 17.6287 35.623 18.3287 35.623 19.122C35.623 19.9153 35.441 20.6153 35.077 21.222C34.7223 21.8287 34.237 22.3 33.621 22.636C33.0143 22.9627 32.333 23.126 31.577 23.126ZM31.577 21.418C31.9317 21.418 32.263 21.334 32.571 21.166C32.8883 20.9887 33.1403 20.7273 33.327 20.382C33.5137 20.0367 33.607 19.6167 33.607 19.122C33.607 18.3847 33.411 17.82 33.019 17.428C32.6363 17.0267 32.165 16.826 31.605 16.826C31.045 16.826 30.5737 17.0267 30.191 17.428C29.8177 17.82 29.631 18.3847 29.631 19.122C29.631 19.8593 29.813 20.4287 30.177 20.83C30.5503 21.222 31.017 21.418 31.577 21.418ZM46.6927 15.132C47.6447 15.132 48.4101 15.426 48.9887 16.014C49.5767 16.5927 49.8707 17.4047 49.8707 18.45V23H47.9107V18.716C47.9107 18.1093 47.7567 17.6473 47.4487 17.33C47.1407 17.0033 46.7207 16.84 46.1887 16.84C45.6567 16.84 45.2321 17.0033 44.9147 17.33C44.6067 17.6473 44.4527 18.1093 44.4527 18.716V23H42.4927V18.716C42.4927 18.1093 42.3387 17.6473 42.0307 17.33C41.7227 17.0033 41.3027 16.84 40.7707 16.84C40.2294 16.84 39.8001 17.0033 39.4827 17.33C39.1747 17.6473 39.0207 18.1093 39.0207 18.716V23H37.0607V15.244H39.0207V16.182C39.2727 15.8553 39.5947 15.5987 39.9867 15.412C40.3881 15.2253 40.8267 15.132 41.3027 15.132C41.9094 15.132 42.4507 15.2627 42.9267 15.524C43.4027 15.776 43.7714 16.14 44.0327 16.616C44.2847 16.168 44.6487 15.8087 45.1247 15.538C45.6101 15.2673 46.1327 15.132 46.6927 15.132ZM53.6906 16.364C53.9426 16.0093 54.288 15.7153 54.7266 15.482C55.1746 15.2393 55.6833 15.118 56.2526 15.118C56.9153 15.118 57.5126 15.2813 58.0446 15.608C58.586 15.9347 59.0106 16.4013 59.3186 17.008C59.636 17.6053 59.7946 18.3007 59.7946 19.094C59.7946 19.8873 59.636 20.592 59.3186 21.208C59.0106 21.8147 58.586 22.286 58.0446 22.622C57.5126 22.958 56.9153 23.126 56.2526 23.126C55.6833 23.126 55.1793 23.0093 54.7406 22.776C54.3113 22.5427 53.9613 22.2487 53.6906 21.894V26.696H51.7306V15.244H53.6906V16.364ZM57.7926 19.094C57.7926 18.6273 57.6946 18.226 57.4986 17.89C57.312 17.5447 57.06 17.2833 56.7426 17.106C56.4346 16.9287 56.0986 16.84 55.7346 16.84C55.38 16.84 55.044 16.9333 54.7266 17.12C54.4186 17.2973 54.1666 17.5587 53.9706 17.904C53.784 18.2493 53.6906 18.6553 53.6906 19.122C53.6906 19.5887 53.784 19.9947 53.9706 20.34C54.1666 20.6853 54.4186 20.9513 54.7266 21.138C55.044 21.3153 55.38 21.404 55.7346 21.404C56.0986 21.404 56.4346 21.3107 56.7426 21.124C57.06 20.9373 57.312 20.6713 57.4986 20.326C57.6946 19.9807 57.7926 19.57 57.7926 19.094ZM60.7149 19.094C60.7149 18.31 60.8689 17.6147 61.1769 17.008C61.4943 16.4013 61.9189 15.9347 62.4509 15.608C62.9923 15.2813 63.5943 15.118 64.2569 15.118C64.8356 15.118 65.3396 15.2347 65.7689 15.468C66.2076 15.7013 66.5576 15.9953 66.8189 16.35V15.244H68.7929V23H66.8189V21.866C66.5669 22.23 66.2169 22.5333 65.7689 22.776C65.3303 23.0093 64.8216 23.126 64.2429 23.126C63.5896 23.126 62.9923 22.958 62.4509 22.622C61.9189 22.286 61.4943 21.8147 61.1769 21.208C60.8689 20.592 60.7149 19.8873 60.7149 19.094ZM66.8189 19.122C66.8189 18.646 66.7256 18.24 66.5389 17.904C66.3523 17.5587 66.1003 17.2973 65.7829 17.12C65.4656 16.9333 65.1249 16.84 64.7609 16.84C64.3969 16.84 64.0609 16.9287 63.7529 17.106C63.4449 17.2833 63.1929 17.5447 62.9969 17.89C62.8103 18.226 62.7169 18.6273 62.7169 19.094C62.7169 19.5607 62.8103 19.9713 62.9969 20.326C63.1929 20.6713 63.4449 20.9373 63.7529 21.124C64.0703 21.3107 64.4063 21.404 64.7609 21.404C65.1249 21.404 65.4656 21.3153 65.7829 21.138C66.1003 20.9513 66.3523 20.69 66.5389 20.354C66.7256 20.0087 66.8189 19.598 66.8189 19.122ZM75.0052 15.132C75.9292 15.132 76.6759 15.426 77.2452 16.014C77.8145 16.5927 78.0992 17.4047 78.0992 18.45V23H76.1392V18.716C76.1392 18.1 75.9852 17.6287 75.6772 17.302C75.3692 16.966 74.9492 16.798 74.4172 16.798C73.8759 16.798 73.4465 16.966 73.1292 17.302C72.8212 17.6287 72.6672 18.1 72.6672 18.716V23H70.7072V15.244H72.6672V16.21C72.9285 15.874 73.2599 15.6127 73.6612 15.426C74.0719 15.23 74.5199 15.132 75.0052 15.132ZM87.3831 15.244L82.5811 26.668H80.4951L82.1751 22.804L79.0671 15.244H81.2651L83.2671 20.662L85.2971 15.244H87.3831ZM93.7356 21.446H96.9556V23H91.7756V13.228H93.7356V21.446ZM101.645 23.126C100.899 23.126 100.227 22.9627 99.6294 22.636C99.032 22.3 98.5607 21.8287 98.2154 21.222C97.8794 20.6153 97.7114 19.9153 97.7114 19.122C97.7114 18.3287 97.884 17.6287 98.2294 17.022C98.584 16.4153 99.0647 15.9487 99.6714 15.622C100.278 15.286 100.955 15.118 101.701 15.118C102.448 15.118 103.125 15.286 103.731 15.622C104.338 15.9487 104.814 16.4153 105.159 17.022C105.514 17.6287 105.691 18.3287 105.691 19.122C105.691 19.9153 105.509 20.6153 105.145 21.222C104.791 21.8287 104.305 22.3 103.689 22.636C103.083 22.9627 102.401 23.126 101.645 23.126ZM101.645 21.418C102 21.418 102.331 21.334 102.639 21.166C102.957 20.9887 103.209 20.7273 103.395 20.382C103.582 20.0367 103.675 19.6167 103.675 19.122C103.675 18.3847 103.479 17.82 103.087 17.428C102.705 17.0267 102.233 16.826 101.673 16.826C101.113 16.826 100.642 17.0267 100.259 17.428C99.886 17.82 99.6994 18.3847 99.6994 19.122C99.6994 19.8593 99.8814 20.4287 100.245 20.83C100.619 21.222 101.085 21.418 101.645 21.418ZM110.167 15.118C110.746 15.118 111.254 15.2347 111.693 15.468C112.132 15.692 112.477 15.986 112.729 16.35V15.244H114.703V23.056C114.703 23.7747 114.558 24.414 114.269 24.974C113.98 25.5433 113.546 25.9913 112.967 26.318C112.388 26.654 111.688 26.822 110.867 26.822C109.766 26.822 108.86 26.5653 108.151 26.052C107.451 25.5387 107.054 24.8387 106.961 23.952H108.907C109.01 24.3067 109.229 24.5867 109.565 24.792C109.91 25.0067 110.326 25.114 110.811 25.114C111.38 25.114 111.842 24.9413 112.197 24.596C112.552 24.26 112.729 23.7467 112.729 23.056V21.852C112.477 22.216 112.127 22.5193 111.679 22.762C111.24 23.0047 110.736 23.126 110.167 23.126C109.514 23.126 108.916 22.958 108.375 22.622C107.834 22.286 107.404 21.8147 107.087 21.208C106.779 20.592 106.625 19.8873 106.625 19.094C106.625 18.31 106.779 17.6147 107.087 17.008C107.404 16.4013 107.829 15.9347 108.361 15.608C108.902 15.2813 109.504 15.118 110.167 15.118ZM112.729 19.122C112.729 18.646 112.636 18.24 112.449 17.904C112.262 17.5587 112.01 17.2973 111.693 17.12C111.376 16.9333 111.035 16.84 110.671 16.84C110.307 16.84 109.971 16.9287 109.663 17.106C109.355 17.2833 109.103 17.5447 108.907 17.89C108.72 18.226 108.627 18.6273 108.627 19.094C108.627 19.5607 108.72 19.9713 108.907 20.326C109.103 20.6713 109.355 20.9373 109.663 21.124C109.98 21.3107 110.316 21.404 110.671 21.404C111.035 21.404 111.376 21.3153 111.693 21.138C112.01 20.9513 112.262 20.69 112.449 20.354C112.636 20.0087 112.729 19.598 112.729 19.122ZM120.061 23.126C119.315 23.126 118.643 22.9627 118.045 22.636C117.448 22.3 116.977 21.8287 116.631 21.222C116.295 20.6153 116.127 19.9153 116.127 19.122C116.127 18.3287 116.3 17.6287 116.645 17.022C117 16.4153 117.481 15.9487 118.087 15.622C118.694 15.286 119.371 15.118 120.117 15.118C120.864 15.118 121.541 15.286 122.147 15.622C122.754 15.9487 123.23 16.4153 123.575 17.022C123.93 17.6287 124.107 18.3287 124.107 19.122C124.107 19.9153 123.925 20.6153 123.561 21.222C123.207 21.8287 122.721 22.3 122.105 22.636C121.499 22.9627 120.817 23.126 120.061 23.126ZM120.061 21.418C120.416 21.418 120.747 21.334 121.055 21.166C121.373 20.9887 121.625 20.7273 121.811 20.382C121.998 20.0367 122.091 19.6167 122.091 19.122C122.091 18.3847 121.895 17.82 121.503 17.428C121.121 17.0267 120.649 16.826 120.089 16.826C119.529 16.826 119.058 17.0267 118.675 17.428C118.302 17.82 118.115 18.3847 118.115 19.122C118.115 19.8593 118.297 20.4287 118.661 20.83C119.035 21.222 119.501 21.418 120.061 21.418Z" fill="#1A1B1F"/>
</svg>